<svg width="40" height="40" viewBox="0 0 40 40" fill="none" xmlns="http://www.w3.org/2000/svg">
<path d="M21.7134 3.33337C23.5884 3.33837 24.54 3.34837 25.3617 3.37171L25.685 3.38337C26.0584 3.39671 26.4267 3.41337 26.8717 3.43337C28.645 3.51671 29.855 3.79671 30.9167 4.20837C32.0167 4.63171 32.9434 5.20504 33.87 6.13004C34.7175 6.9632 35.3733 7.97102 35.7917 9.08337C36.2034 10.145 36.4834 11.355 36.5667 13.13C36.5867 13.5734 36.6034 13.9417 36.6167 14.3167L36.6267 14.64C36.6517 15.46 36.6617 16.4117 36.665 18.2867L36.6667 19.53V21.7134C36.6708 22.929 36.658 24.1447 36.6284 25.36L36.6184 25.6834C36.605 26.0584 36.5884 26.4267 36.5684 26.87C36.485 28.645 36.2017 29.8534 35.7917 30.9167C35.3745 32.0297 34.7186 33.0377 33.87 33.87C33.0366 34.7172 32.0289 35.373 30.9167 35.7917C29.855 36.2034 28.645 36.4834 26.8717 36.5667C26.4762 36.5853 26.0807 36.602 25.685 36.6167L25.3617 36.6267C24.54 36.65 23.5884 36.6617 21.7134 36.665L20.47 36.6667H18.2884C17.0721 36.6709 15.8559 36.6581 14.64 36.6284L14.3167 36.6184C13.921 36.6034 13.5255 36.5862 13.13 36.5667C11.3567 36.4834 10.1467 36.2034 9.08336 35.7917C7.97114 35.374 6.96372 34.7181 6.13169 33.87C5.28343 33.0372 4.62707 32.0293 4.20836 30.9167C3.79669 29.855 3.51669 28.645 3.43336 26.87C3.41479 26.4746 3.39812 26.079 3.38336 25.6834L3.37503 25.36C3.34431 24.1447 3.33042 22.9291 3.33336 21.7134V18.2867C3.32871 17.071 3.34093 15.8554 3.37003 14.64L3.38169 14.3167C3.39503 13.9417 3.41169 13.5734 3.43169 13.13C3.51503 11.355 3.79503 10.1467 4.20669 9.08337C4.62522 7.96988 5.28289 6.96175 6.13336 6.13004C6.96518 5.2825 7.97193 4.62669 9.08336 4.20837C10.1467 3.79671 11.355 3.51671 13.13 3.43337C13.5734 3.41337 13.9434 3.39671 14.3167 3.38337L14.64 3.37337C15.8553 3.34376 17.071 3.33098 18.2867 3.33504L21.7134 3.33337ZM20 11.6667C17.7899 11.6667 15.6703 12.5447 14.1075 14.1075C12.5447 15.6703 11.6667 17.7899 11.6667 20C11.6667 22.2102 12.5447 24.3298 14.1075 25.8926C15.6703 27.4554 17.7899 28.3334 20 28.3334C22.2102 28.3334 24.3298 27.4554 25.8926 25.8926C27.4554 24.3298 28.3334 22.2102 28.3334 20C28.3334 17.7899 27.4554 15.6703 25.8926 14.1075C24.3298 12.5447 22.2102 11.6667 20 11.6667ZM20 15C20.6566 14.9999 21.3068 15.1292 21.9135 15.3803C22.5202 15.6315 23.0714 15.9997 23.5358 16.4639C24.0002 16.9281 24.3686 17.4793 24.6199 18.0859C24.8713 18.6924 25.0008 19.3426 25.0009 19.9992C25.001 20.6558 24.8717 21.306 24.6206 21.9127C24.3694 22.5194 24.0012 23.0706 23.537 23.535C23.0728 23.9994 22.5216 24.3677 21.915 24.6191C21.3085 24.8705 20.6583 24.9999 20.0017 25C18.6756 25 17.4038 24.4733 16.4662 23.5356C15.5285 22.5979 15.0017 21.3261 15.0017 20C15.0017 18.674 15.5285 17.4022 16.4662 16.4645C17.4038 15.5268 18.6756 15 20.0017 15M28.7517 9.16671C28.1992 9.16671 27.6693 9.3862 27.2786 9.7769C26.8879 10.1676 26.6684 10.6975 26.6684 11.25C26.6684 11.8026 26.8879 12.3325 27.2786 12.7232C27.6693 13.1139 28.1992 13.3334 28.7517 13.3334C29.3042 13.3334 29.8341 13.1139 30.2248 12.7232C30.6155 12.3325 30.835 11.8026 30.835 11.25C30.835 10.6975 30.6155 10.1676 30.2248 9.7769C29.8341 9.3862 29.3042 9.16671 28.7517 9.16671Z" fill="black"/>
</svg>
