<svg width="40" height="40" viewBox="0 0 40 40" fill="none" xmlns="http://www.w3.org/2000/svg">
<path d="M6.66665 33.3333C5.74998 33.3333 4.96554 33.0072 4.31331 32.355C3.66109 31.7027 3.33442 30.9177 3.33331 30V9.99996C3.33331 9.08329 3.65998 8.29885 4.31331 7.64663C4.96665 6.9944 5.75109 6.66774 6.66665 6.66663H33.3333C34.25 6.66663 35.035 6.99329 35.6883 7.64663C36.3416 8.29996 36.6678 9.0844 36.6666 9.99996V30C36.6666 30.9166 36.3405 31.7016 35.6883 32.355C35.0361 33.0083 34.2511 33.3344 33.3333 33.3333H6.66665ZM20 21.6666L33.3333 13.3333V9.99996L20 18.3333L6.66665 9.99996V13.3333L20 21.6666Z" fill="black"/>
</svg>
