<svg width="40" height="40" viewBox="0 0 40 40" fill="none" xmlns="http://www.w3.org/2000/svg">
<path d="M26.7533 2.97839L28.3633 3.41339C30.3323 3.94619 32.1271 4.98589 33.5688 6.42879C35.0106 7.87169 36.0488 9.66737 36.58 11.6367L37.0133 13.2451L33.7967 14.1134L33.3617 12.5051C32.9821 11.0983 32.2403 9.81574 31.2103 8.78518C30.1804 7.75461 28.8982 7.01211 27.4917 6.63173L25.8833 6.19506L26.7533 2.97839ZM1.66667 3.33339H15.9667L18.445 14.4834L15.345 17.5834C17.1677 20.4201 19.5795 22.8313 22.4167 24.6534L25.5167 21.5551L36.6667 24.0334V38.3334H35C28.5839 38.3443 22.3023 36.494 16.9167 33.0067C12.9454 30.4367 9.56341 27.0547 6.99334 23.0834C3.50604 17.6977 1.65573 11.4162 1.66667 5.00006V3.33339ZM5.04501 6.66673C5.32586 11.8666 6.96289 16.9024 9.79334 21.2734C12.1072 24.8483 15.1517 27.8929 18.7267 30.2067C23.0977 33.0372 28.1335 34.6742 33.3333 34.9551V26.7067L26.5783 25.2067L22.955 28.8317L21.85 28.2034C17.6544 25.8192 14.1809 22.3457 11.7967 18.1501L11.1683 17.0451L14.7933 13.4217L13.2933 6.66673H5.04501ZM25.23 8.60839L26.84 9.04339C27.8245 9.30979 28.7219 9.82964 29.4428 10.5511C30.1636 11.2725 30.6827 12.1704 30.9483 13.1551L31.3817 14.7634L28.165 15.6317L27.73 14.0234C27.616 13.6014 27.3934 13.2166 27.0843 12.9075C26.7751 12.5984 26.3904 12.3757 25.9683 12.2617L24.36 11.8267L25.23 8.60839Z" fill="black"/>
</svg>
