<svg width="40" height="40" viewBox="0 0 40 40" fill="none" xmlns="http://www.w3.org/2000/svg">
<path fill-rule="evenodd" clip-rule="evenodd" d="M29.9849 10.0167L8.99824 17.605L15.9899 21.6517L22.1549 15.485C22.4676 15.1725 22.8917 14.997 23.3338 14.9972C23.7759 14.9973 24.1999 15.1731 24.5124 15.4858C24.8249 15.7986 25.0004 16.2226 25.0002 16.6647C25.0001 17.1069 24.8243 17.5308 24.5116 17.8433L18.3449 24.01L22.3949 31L29.9849 10.0167ZM30.5232 6.27665C32.5149 5.55499 34.4449 7.48499 33.7232 9.47665L24.9199 33.8183C24.1966 35.815 21.4699 36.0583 20.4049 34.22L15.0432 24.9567L5.77991 19.595C3.94157 18.53 4.18491 15.8033 6.18158 15.08L30.5232 6.27665Z" fill="black"/>
</svg>
